<?xml version="1.0" encoding="UTF-8" standalone="no"?>
<!-- Created with Inkscape (http://www.inkscape.org/) -->

<svg
   width="100.00141mm"
   height="100.00139mm"
   viewBox="0 0 100.00141 100.00139"
   version="1.1"
   id="svg1"
   xml:space="preserve"
   xmlns="http://www.w3.org/2000/svg"
   xmlns:svg="http://www.w3.org/2000/svg"><defs
     id="defs1" /><g
     id="layer1"
     transform="translate(-3.5800001e-4,-100.0047)"><g
       id="g1"
       transform="matrix(0.54648928,0,0,0.54648928,185802.94,255480.32)"><rect
         style="fill:#0569a0;stroke:#ffffff;stroke-width:0"
         id="rect1-4"
         width="182.98877"
         height="182.98877"
         x="-339993.75"
         y="-467310.75"
         ry="35.203651" /><g
         id="g6-6-4-8"
         transform="matrix(1.2555723,0,0,1.2555723,-340430.75,-467589.6)">
	<rect
   x="367.32999"
   y="246.74001"
   class="st1"
   width="107.8"
   height="80.120003"
   id="rect2-5-6-3"
   style="fill:#ffffff" />
	<g
   id="g5-7-0-9">
		<path
   class="st2"
   d="m 434.63,302.73 c -0.5,-0.47 -1.28,-0.49 -1.8,-0.03 -2.94,2.61 -7.29,4.14 -11.89,4.14 -4.6,0 -8.94,-1.53 -11.89,-4.14 -0.52,-0.46 -1.29,-0.44 -1.8,0.03 l -2.5,2.33 c -0.58,0.55 -0.56,1.46 0.03,2 4.08,3.74 9.88,5.87 16.15,5.87 6.27,0 12.07,-2.12 16.15,-5.87 0.59,-0.54 0.61,-1.46 0.03,-2 z"
   id="path2-6-3-0"
   style="fill:#02090c" />
		<path
   class="st2"
   d="m 480.86,252.62 c -0.26,-5.79 -4.82,-10.55 -10.61,-11.06 -15.89,-1.4 -32.48,-2.1 -49.31,-2.1 -16.83,0 -33.42,0.71 -49.31,2.1 -5.79,0.51 -10.35,5.26 -10.61,11.06 -0.5,11.2 -0.75,22.65 -0.75,34.02 0,11.37 0.25,22.81 0.75,34.02 0.26,5.79 4.82,10.55 10.61,11.06 12.17,1.07 24.75,1.73 37.53,1.98 v 7.35 c 0,3.45 -2.8,6.25 -6.25,6.25 h -1.49 c -0.74,0 -1.35,0.6 -1.35,1.35 v 5.84 c 0,0.74 0.6,1.35 1.35,1.35 h 39.03 c 0.74,0 1.35,-0.6 1.35,-1.35 v -5.84 c 0,-0.74 -0.6,-1.35 -1.35,-1.35 h -1.49 c -3.45,0 -6.25,-2.8 -6.25,-6.25 v -7.35 c 12.78,-0.25 25.36,-0.91 37.53,-1.98 5.79,-0.51 10.35,-5.26 10.61,-11.06 0.5,-11.2 0.75,-22.65 0.75,-34.02 0.01,-11.37 -0.24,-22.82 -0.74,-34.02 z m -8.52,67.67 c -0.07,1.53 -1.26,2.78 -2.78,2.91 -15.66,1.38 -32.01,2.07 -48.61,2.07 -16.6,0 -32.95,-0.7 -48.61,-2.07 -1.53,-0.13 -2.72,-1.38 -2.78,-2.91 -0.49,-11.08 -0.74,-22.41 -0.74,-33.66 0,-11.25 0.25,-22.57 0.74,-33.66 0.07,-1.53 1.26,-2.78 2.78,-2.91 10.56,-0.93 21.44,-1.54 32.49,-1.85 1.94,-0.05 3.83,0.7 5.2,2.08 l 7.65,7.65 c 1.8,1.8 4.71,1.8 6.51,0 l 7.65,-7.65 c 1.38,-1.38 3.26,-2.13 5.2,-2.08 11.05,0.3 21.94,0.92 32.49,1.85 1.53,0.13 2.72,1.38 2.78,2.91 0.49,11.08 0.74,22.41 0.74,33.66 0.03,11.25 -0.22,22.58 -0.71,33.66 z"
   id="path3-2-2-5"
   style="fill:#02090c" />
		<path
   class="st2"
   d="m 456.21,273.69 h -18.59 c -1.33,0 -2.24,1.35 -1.73,2.58 l 1.63,3.98 -11.97,4.91 c -0.51,0.21 -0.75,0.79 -0.54,1.3 l 1.16,2.82 c 0.21,0.51 0.79,0.75 1.3,0.54 l 11.97,-4.91 1.69,4.12 c 0.51,1.24 2.11,1.56 3.06,0.61 l 13.18,-13.18 c 1.02,-1.01 0.29,-2.77 -1.16,-2.77 z"
   id="path4-7-6-2"
   style="fill:#02090c" />
		<path
   class="st2"
   d="m 414.56,273.69 h -18.59 c -1.33,0 -2.24,1.35 -1.73,2.58 l 1.63,3.98 -11.97,4.91 c -0.51,0.21 -0.75,0.79 -0.54,1.3 l 1.16,2.82 c 0.21,0.51 0.79,0.75 1.3,0.54 l 11.97,-4.91 1.69,4.12 c 0.51,1.24 2.11,1.56 3.06,0.61 l 13.18,-13.18 c 1.02,-1.01 0.29,-2.77 -1.16,-2.77 z"
   id="path5-0-9-2"
   style="fill:#02090c" />
	</g>
</g></g></g><style
     type="text/css"
     id="style1">
	.st0{fill:#0569A0;}
	.st1{fill:#FFFFFF;}
	.st2{fill:#02090C;}
</style></svg>
